<svg width="112" height="112" viewBox="0 0 112 112" fill="none" xmlns="http://www.w3.org/2000/svg">
<path d="M55.874 111.748C86.7324 111.748 111.748 86.7323 111.748 55.874C111.748 25.0156 86.7324 0 55.874 0C25.0156 0 0 25.0156 0 55.874C0 86.7323 25.0156 111.748 55.874 111.748Z" fill="#4A4A4A"/>
<path d="M50.7223 65.7469C49.6123 67.0372 47.4658 67.0108 45.9283 65.688C44.3911 64.3652 44.0451 62.247 45.1548 60.9567L52.5064 52.4128C53.0153 51.3812 58.6371 56.6537 58.0737 57.203L50.7223 65.7469Z" fill="#EAF6E9"/>
<path d="M52.2576 66.848L52.2804 66.8214C52.5325 66.5286 52.5265 66.1106 52.2676 65.8878L44.5431 59.2412C44.2839 59.0182 43.87 59.0751 43.6176 59.368L42.0894 61.1443C42.0877 61.1462 42.0866 61.1489 42.0845 61.1508L31.1213 73.8924C28.3348 77.1308 28.0162 81.4251 30.4089 83.4839C32.8021 85.5431 37.0007 84.5869 39.7871 81.3486L52.2614 66.851L52.2576 66.848Z" fill="#EEA402"/>
<path d="M79.0987 26.7472C70.6699 19.4962 57.96 20.4496 50.709 28.8771C43.4581 37.306 44.4117 50.0158 52.8389 57.2671C61.2666 64.518 73.9765 63.5657 81.2286 55.1371C88.4801 46.7097 87.5265 33.9998 79.0987 26.7472ZM56.2896 53.2564C50.0764 47.9114 49.3737 38.5408 54.72 32.3293C57.4386 29.17 61.1983 27.4346 65.0544 27.1958C68.7788 26.9657 72.593 28.1319 75.6467 30.7582C81.8599 36.1045 82.5626 45.4737 77.2179 51.6866C76.0438 53.0509 74.6773 54.1482 73.1922 54.9746C67.9108 57.9165 61.1395 57.4286 56.2896 53.2564Z" fill="#EAF6E9"/>
<path opacity="0.12" d="M65.9685 56.8496C74.1655 56.8496 80.8105 50.2047 80.8105 42.0076C80.8105 33.8106 74.1655 27.1656 65.9685 27.1656C57.7715 27.1656 51.1265 33.8106 51.1265 42.0076C51.1265 50.2047 57.7715 56.8496 65.9685 56.8496Z" fill="#FDFEFE"/>
<path opacity="0.12" d="M77.2861 51.606C76.112 52.9703 74.7311 54.0847 73.328 54.8134L73.3267 54.8123C75.0411 36.8451 65.3929 27.3687 65.1226 27.1152C68.847 26.8853 72.6612 28.0513 75.7149 30.6776C81.9275 36.0241 82.6307 45.3931 77.2861 51.606Z" fill="#FDFEFE"/>
</svg>
