<svg width="109" height="109" viewBox="0 0 109 109" fill="none" xmlns="http://www.w3.org/2000/svg">
<path d="M54.5 109C84.5995 109 109 84.5995 109 54.5C109 24.4005 84.5995 0 54.5 0C24.4005 0 0 24.4005 0 54.5C0 84.5995 24.4005 109 54.5 109Z" fill="#4A4A4A"/>
<path d="M9.48242 50.8772L94.0798 27.7781L57.6486 88.5201L38.6943 68.0147L34.5696 75.1035L36.9103 54.1969L9.48242 50.8772Z" fill="#FDFEFE"/>
<path d="M37.5033 53.912L94.0795 27.7781L38.694 68.0147L34.5693 75.1035L36.91 54.1969L37.5033 53.912Z" fill="#CDC8CD"/>
<path d="M38.694 68.0148L40.7565 70.2459L34.5693 75.1035L38.694 68.0148Z" fill="#848484"/>
</svg>
