<svg width="108" height="108" viewBox="0 0 108 108" fill="none" xmlns="http://www.w3.org/2000/svg">
<path d="M54 108C83.8234 108 108 83.8234 108 54C108 24.1766 83.8234 0 54 0C24.1766 0 0 24.1766 0 54C0 83.8234 24.1766 108 54 108Z" fill="#4A4A4A"/>
<path d="M42.7696 18.1241C42.5144 18.255 42.4011 18.5438 42.5162 18.7689L68.7097 69.8752C68.8251 70.1003 69.1254 70.1769 69.3809 70.046C69.6361 69.9151 69.7494 69.6266 69.634 69.4013L43.4405 18.2952C43.3254 18.0699 43.0248 17.9933 42.7696 18.1241Z" fill="white"/>
<path d="M41.763 80.722H53.1325V73.7197C53.1325 72.1472 54.4073 70.8727 55.9795 70.8727C57.5517 70.8727 58.8264 72.1475 58.8264 73.7197V80.722H68.6946C71.3718 80.722 73.5421 82.8922 73.5421 85.5697C73.5421 85.6993 73.5355 85.8273 73.5255 85.9545H36.932C36.9221 85.8273 36.9155 85.6993 36.9155 85.5697C36.9155 82.8922 39.0858 80.722 41.763 80.722Z" fill="white"/>
<path d="M43.0921 16.2986L43.0953 16.3046C43.3927 16.1693 43.7229 16.0932 44.071 16.0932C45.3743 16.0932 46.4309 17.1497 46.4309 18.4531C46.4309 19.4178 45.8517 20.2469 45.0218 20.6128C32.4114 27.1868 27.4291 42.7092 33.9018 55.4062C40.3503 68.0552 55.7476 73.1505 68.4483 66.916C68.8166 66.6813 69.2538 66.5443 69.7231 66.5443C71.0351 66.5443 72.0989 67.6079 72.0989 68.9202C72.0989 69.9602 71.4303 70.8436 70.4997 71.1655C55.4956 78.5134 37.3156 72.488 29.6993 57.5486C22.0066 42.4592 28.0032 23.9909 43.0921 16.2986Z" fill="white"/>
<path d="M32.9272 43.4817C32.9272 45.3046 33.1274 47.0804 33.5074 48.7887C33.9575 50.8155 34.6602 52.7478 35.5804 54.5498C37.0555 57.4377 39.0899 59.9916 41.5408 62.0698C41.603 62.1223 41.6654 62.1745 41.7278 62.2261C42.7673 63.0904 43.8792 63.8707 45.0543 64.554C48.6501 66.6464 52.8298 67.8451 57.2896 67.8451C61.5417 67.8451 65.5399 66.7555 69.0195 64.8402C69.1942 64.7439 69.3681 64.6456 69.5404 64.5448C75.9016 60.8376 80.4315 54.3302 81.4405 46.7116C81.5806 45.6551 81.653 44.577 81.653 43.4819C81.653 41.6668 81.4544 39.8976 81.0773 38.1964C81.0626 38.1271 81.0474 38.0579 81.0311 37.9887C80.8417 37.1669 80.6104 36.3611 80.3402 35.574C80.2725 35.3772 80.2025 35.1808 80.1301 34.9854C79.4783 33.2348 78.6311 31.5797 77.6155 30.0461C77.3238 29.6059 77.0182 29.1758 76.6998 28.7571C75.7125 27.4575 74.5975 26.2601 73.3741 25.1844C73.2889 25.1091 73.2034 25.0344 73.1166 24.9604C72.817 24.7041 72.5109 24.4549 72.1993 24.2131C69.9832 22.4948 67.4625 21.1513 64.7323 20.2766C64.647 20.249 64.5615 20.222 64.4755 20.1958C62.2048 19.4947 59.7916 19.1185 57.2901 19.1185C56.7314 19.1185 56.1767 19.1369 55.6272 19.1747C54.9877 19.2177 54.3545 19.2853 53.7297 19.3769C51.4973 19.704 49.3635 20.3332 47.3714 21.2222C47.2444 21.2791 47.1175 21.3368 46.9913 21.3968C40.777 24.2991 35.9909 29.747 33.9733 36.3999C33.6677 37.4056 33.4253 38.4382 33.2522 39.4948C33.2383 39.58 33.2247 39.6663 33.2116 39.7516C33.024 40.9678 32.9272 42.2137 32.9272 43.4817Z" fill="white"/>
<path d="M33.9728 36.4002C35.9904 29.7473 40.7765 24.2994 46.9908 21.3971C47.8404 21.364 48.6774 21.5193 49.4362 22.088C50.5942 22.9567 50.1709 24.5819 50.2388 25.8469C51.73 25.9201 54.3146 25.2051 55.2133 26.5664C55.4926 26.9879 55.5658 27.3858 55.9713 27.7845C56.3892 28.1945 56.6515 28.4439 57.0195 28.9418C57.2419 29.2426 57.3395 29.4811 57.6797 29.5634C57.9973 30.9738 55.0632 30.3222 54.2186 30.3215C53.3484 30.3207 51.8202 30.76 51.0606 30.4022C50.6189 30.1945 50.5426 29.4297 50.1541 29.3174C49.5986 29.1574 49.3861 30.0067 49.1561 30.3139C48.6459 30.9948 48.1934 31.2033 47.3801 31.245C46.7999 31.2741 46.1842 31.1611 45.6101 31.245C45.1938 31.3056 44.9229 31.5443 44.5898 31.6843C44.9814 31.8758 45.1962 32.4584 45.6686 32.6108C46.3579 32.8332 47.4107 32.7624 48.13 32.7876C49.1005 32.8222 49.0126 32.3314 49.629 31.8066C50.3361 31.2033 50.8164 31.2164 51.7465 31.1718C53.2209 31.1018 55.9755 30.8392 57.1697 31.7859C57.7515 32.2475 57.5459 32.9279 58.0946 33.3804C58.998 34.1253 60.737 33.9637 61.3649 35.0163C61.9168 35.9404 61.4927 37.8625 61.3633 38.8004C61.1719 40.1856 61.1994 41.3935 59.7736 41.9422C58.4463 42.4532 56.7865 42.5392 55.4 42.8049C54.6399 42.9495 53.7032 42.8018 53.4548 43.6259C53.3334 44.0291 53.4632 44.5933 53.3793 45.0171C53.1986 45.9249 52.5607 46.3331 51.9144 46.9469C51.2426 47.5871 51.304 47.9895 51.304 49.0014C51.304 50.4726 51.1679 51.3015 50.6076 52.6379C50.366 53.2128 50.2283 53.8974 50.2268 54.56C50.2244 55.6934 50.5462 56.5939 51.3796 57.2346C52.3983 58.0189 53.3853 58.9236 52.6761 60.164C51.8213 60.7851 50.0429 60.3216 49.2497 59.8114C47.8892 58.9372 46.8466 58.4257 45.2253 58.0971C42.3175 57.5085 44.0072 54.6961 42.9785 52.7208C42.6752 52.139 42.0612 51.8513 41.7635 51.3117C41.3994 50.6555 41.3743 49.8114 41.3779 49.0772C41.384 47.7844 41.6064 46.5411 41.6087 45.2506C41.6111 44.0508 41.3032 44.1555 40.5315 43.6162C39.6305 42.987 39.7659 42.0702 39.7619 40.9925C39.7611 40.6976 39.758 40.3968 39.775 40.107C40.3337 39.8924 40.8638 39.7046 41.4432 39.4976C41.7811 39.3775 42.5798 39.2366 42.8269 39.0027C43.5985 38.2732 43.9196 35.8811 43.8286 34.8728C41.9403 34.4521 42.1926 38.0222 40.323 38.0946C38.2461 38.1746 38.0698 36.9203 38.1577 35.2576C39.5626 35.1837 39.9091 35.2078 39.8275 33.6416C39.1203 33.5202 38.4901 34.0209 37.9715 34.4017C37.6198 34.6596 37.0681 34.775 36.755 35.0305C35.9786 35.6652 36.4187 36.9303 35.7477 37.6975C35.4269 37.7707 35.2069 37.9915 35.1337 38.3092C34.4027 38.7115 34.0195 40.0689 33.3692 40.6837C33.3577 40.2858 33.3052 39.8913 33.2515 39.495C33.4251 38.4387 33.6675 37.4061 33.9728 36.4002Z" fill="#88BA41"/>
<path d="M68.0907 61.2428C67.9123 60.0963 69.2655 59.4178 69.3872 58.4087C69.5328 57.2008 68.4099 56.5443 68.0545 55.5756C67.8559 55.0332 68.002 54.2382 67.9136 53.648C67.2133 53.5279 66.9639 53.424 66.4684 52.9309C65.8751 52.3399 65.4344 52.2807 64.7472 51.8728C63.533 51.1525 62.7918 50.086 62.9389 48.6148C63.0882 47.1197 63.5991 45.2244 65.0664 44.5589C65.7804 44.235 66.0151 44.5104 66.2491 43.7479C66.3999 43.2584 66.2906 42.6814 66.3976 42.1843C67.1839 41.6865 68.0658 41.0796 68.9238 40.6247C69.7909 40.1647 70.929 39.409 71.9517 39.2629C72.4603 39.1905 72.8873 39.2398 73.319 39.4169C73.456 39.473 73.4245 39.7185 73.616 39.7878C73.8329 39.8662 74.267 39.7655 74.4755 39.7093C75.558 39.4153 77.061 38.1589 77.3188 37.0968C77.4041 36.7454 77.3248 36.3506 77.482 36.012C77.5958 35.7649 77.9168 35.5965 78.0805 35.3379C78.433 34.7808 78.6531 33.9621 77.7873 33.6288C77.0169 33.3326 76.7963 33.9073 76.1621 34.113C75.2771 34.4007 74.3633 34.0067 73.5559 33.6943C73.5189 33.0095 72.7512 32.1638 72.2701 31.7324C71.6144 31.1427 70.7905 30.8052 70.087 30.3089C69.6183 29.9771 69.1968 29.5902 68.695 29.3216C67.9134 28.9045 64.62 28.3813 65.7995 26.9539C66.2405 26.4198 67.0284 26.1121 67.4085 25.415C67.554 25.1495 67.5771 24.9016 67.6938 24.6254C68.1877 23.465 68.9196 23.6211 70.023 23.9936C71.0032 24.3235 71.3542 25.2694 72.5453 25.0892C72.747 25.0593 72.9345 25.0129 73.1155 24.9607C73.2026 25.0346 73.2878 25.1091 73.3731 25.1847C74.5967 26.2606 75.7117 27.4577 76.6987 28.7574C77.0172 29.176 77.3227 29.6062 77.6144 30.0463C78.63 31.58 79.4772 33.2351 80.1291 34.9856C80.2012 35.181 80.2712 35.3775 80.3392 35.5742C80.6093 36.3614 80.8409 37.1671 81.03 37.9889C81.0463 38.0582 81.0615 38.1274 81.0762 38.1967C80.5852 38.379 80.1605 37.7327 79.5612 38.0343C78.9309 38.3506 78.838 39.7355 78.2523 40.2704C77.3283 41.1152 75.6377 40.2449 74.9414 41.5729C73.9842 43.4004 75.6078 46.7646 73.8494 48.1521C73.1155 48.7315 72.9206 48.4976 73.0208 49.6664C73.1071 50.6828 73.2755 51.6784 73.024 52.6712C72.7522 53.7385 72.0136 54.4404 71.9257 55.5544C71.851 56.4963 71.7804 56.981 71.3156 57.7881C70.8102 58.6676 70.3121 59.4985 69.8675 60.4098C69.366 61.4382 69.1973 61.2704 68.0907 61.2428Z" fill="#88BA41"/>
<path d="M64.4836 24.402C64.0634 25.0852 62.443 25.5031 61.6988 25.0892C61.0124 24.7067 60.8771 23.869 59.8444 23.6041C59.0434 23.3987 57.3437 23.7764 56.7821 23.0884C56.2927 22.4882 56.9804 21.3863 56.4435 20.8725C56.0227 20.4699 55.0829 20.8271 54.5906 20.4785C54.4482 20.3775 53.8357 19.6067 53.7633 19.4511C53.7518 19.4257 53.7402 19.401 53.7295 19.3771C54.3543 19.2856 54.9875 19.2179 55.6269 19.1749C56.1765 19.1371 56.7312 19.1188 57.2899 19.1188C59.7914 19.1188 62.2045 19.4952 64.4752 20.196C64.5613 20.2223 64.6468 20.249 64.732 20.2768C64.5928 20.5386 64.4488 20.8056 64.3821 21.161C64.1757 22.2498 65.1546 23.3108 64.4836 24.402Z" fill="#88BA41"/>
<path d="M49.9217 62.8724C50.9074 63.0196 51.8768 62.9409 52.8371 62.7969C53.8045 62.6532 55.4766 62.4913 56.3697 62.9262C56.9423 63.2048 56.9683 63.8833 57.4792 64.2359C57.9448 64.5569 58.8043 64.4145 59.3699 64.5761C59.4131 65.0839 59.0706 65.4571 59.1637 66.0134C60.829 66.1005 63.0202 66.2351 64.4293 65.2501C65.7743 64.3098 64.401 63.4012 64.8419 62.1737C65.1496 61.3157 65.8583 61.2756 66.557 61.658C67.3696 62.1036 67.5842 62.9314 68.0805 63.5678C68.4075 63.9864 69.217 63.8518 69.4672 64.3326C69.5042 64.4035 69.5278 64.4743 69.5401 64.5443C69.3678 64.6453 69.1939 64.7436 69.0192 64.8396C65.5396 66.7549 61.5414 67.8445 57.2893 67.8445C52.8295 67.8445 48.6498 66.6458 45.054 64.5535C43.8792 63.8702 42.767 63.0899 41.7275 62.2256C41.9452 62.0918 42.2301 62.0611 42.6078 62.0234C45.0949 61.776 47.5395 62.5178 49.9217 62.8724Z" fill="#88BA41"/>
</svg>
