<svg width="108" height="108" viewBox="0 0 108 108" fill="none" xmlns="http://www.w3.org/2000/svg">
<path d="M54 108C83.8234 108 108 83.8234 108 54C108 24.1766 83.8234 0 54 0C24.1766 0 0 24.1766 0 54C0 83.8234 24.1766 108 54 108Z" fill="#4A4A4A"/>
<path d="M42.3787 53.446C40.5541 54.1888 38.8849 55.2382 37.4061 56.5731C35.7969 58.0262 34.4363 59.8537 33.3622 61.8938C33.2043 62.1939 33.0519 62.6104 32.9066 62.8727H17.6646L19.2711 53.3704C20.0911 47.831 23.0847 43.5768 27.6533 41.9661C28.6718 42.9316 29.8574 43.676 31.1765 44.2069C32.5512 44.7598 34.0109 45.0336 35.5141 45.0336C37.0058 45.0336 38.4539 44.754 39.8192 44.209C39.7701 44.6667 39.746 45.127 39.746 45.5923C39.746 46.6399 39.8722 47.6838 40.1216 48.6963C40.3642 49.6815 40.7246 50.6421 41.1931 51.5517C41.5328 52.2117 41.9299 52.8456 42.3787 53.446Z" fill="#22CED9"/>
<path d="M44.6964 34.4248C44.6964 34.7398 44.6791 35.0504 44.6445 35.3567C44.3964 35.5621 44.1553 35.7764 43.9211 35.9993C42.6128 37.2445 41.5853 38.6945 40.8666 40.3102C40.6363 40.8288 40.4412 41.3571 40.2815 41.8935C38.8921 42.6984 37.2598 43.1622 35.514 43.1622C33.3372 43.1622 31.3372 42.4417 29.7639 41.2375C27.6711 39.6361 26.3315 37.1789 26.3315 34.4248C26.3315 29.5996 30.4427 25.6874 35.514 25.6874C40.5852 25.6874 44.6964 29.5993 44.6964 34.4248Z" fill="#22CED9"/>
<path d="M90.3389 62.8727H75.128C74.9728 62.6104 74.8104 62.1441 74.6412 61.823C72.5809 57.9095 69.4821 55.0093 65.646 53.4458C66.0861 52.8543 66.4762 52.2151 66.8104 51.5659C67.2788 50.6565 67.6392 49.6884 67.8819 48.7032C68.131 47.6907 68.2577 46.6426 68.2577 45.5947C68.2577 45.1294 68.2333 44.6654 68.1846 44.2077C69.5495 44.7522 70.9979 45.0277 72.4893 45.0277C73.9928 45.0277 75.4523 44.7467 76.827 44.1932C78.1463 43.6626 79.3316 42.9038 80.3503 41.938C84.919 43.5488 87.9124 47.831 88.7326 53.3705L90.3389 62.8727Z" fill="#22CED9"/>
<path d="M81.6714 34.4248C81.6714 37.1789 80.3318 39.6359 78.239 41.2375C76.6657 42.4417 74.6657 43.1622 72.4889 43.1622C70.743 43.1622 69.111 42.6984 67.7214 41.8935C67.5616 41.3571 67.3662 40.8285 67.1362 40.3102C66.4178 38.6947 65.3901 37.2445 64.082 35.9993C63.8475 35.7761 63.6065 35.5621 63.3583 35.3567C63.3237 35.0504 63.3066 34.7398 63.3066 34.4248C63.3066 29.5996 67.4179 25.6874 72.4889 25.6874C77.5601 25.6874 81.6714 29.5993 81.6714 34.4248Z" fill="#22CED9"/>
<path d="M76.8257 82.5449H31.1772L33.2316 70.2815C33.6132 67.7029 34.3634 65.2556 35.4446 63.2027C35.4571 63.179 35.4692 63.1452 35.4818 63.1221C37.3706 59.5719 40.2551 56.897 43.9424 55.5945C43.945 55.5937 43.9474 55.5724 43.9498 55.5719C44.2047 55.8132 44.4675 56.0427 44.7385 56.2631C44.7699 56.289 44.8017 56.314 44.8339 56.3394C44.8712 56.3696 44.909 56.399 44.947 56.4289C44.9877 56.4609 45.0289 56.4923 45.0698 56.5233C45.1131 56.5571 45.1563 56.5896 45.2001 56.6216C45.2437 56.6547 45.2872 56.6867 45.3313 56.7184C46.2766 57.4072 47.3072 57.9772 48.4125 58.4254C48.4264 58.4309 48.4408 58.4373 48.4552 58.4428C48.9751 58.6523 49.5047 58.8302 50.0424 58.9768C50.0833 58.9883 50.1248 58.9993 50.1659 59.0103C50.2074 59.0211 50.2485 59.0321 50.2902 59.0426C50.3128 59.0481 50.3349 59.0539 50.3572 59.0594C50.3794 59.0654 50.4014 59.0712 50.424 59.0762C50.4715 59.088 50.5187 59.099 50.5664 59.1103C50.5774 59.1129 50.589 59.1208 50.6008 59.1232C51.3027 59.2853 52.0169 59.4626 52.7409 59.4626C52.7409 59.4626 52.7414 59.4626 52.7417 59.4626C53.1585 59.4626 53.5787 59.5071 54.002 59.5071C54.4254 59.5071 54.8458 59.4859 55.2628 59.4513C55.2647 59.4513 55.2665 59.4497 55.2684 59.4497C55.8669 59.3996 56.4586 59.3133 57.042 59.1924C57.0436 59.1921 57.0454 59.1914 57.047 59.1911C57.1805 59.1633 57.3132 59.1334 57.4459 59.1022C57.5813 59.0702 57.7161 59.0358 57.8507 58.9999C57.9275 58.9797 58.0042 58.9584 58.0807 58.9364C58.0999 58.9309 58.119 58.9254 58.1387 58.9198C58.3506 58.8587 58.5612 58.7927 58.7705 58.7218C58.9012 58.6773 59.0313 58.6311 59.1609 58.5836C59.2907 58.5353 59.4198 58.4857 59.548 58.4341C61.2354 57.7552 62.7507 56.7848 64.0535 55.5507L64.0543 55.5509C64.0569 55.5517 64.0595 55.5525 64.0619 55.5535C67.7734 56.8642 70.6712 59.5265 72.559 63.1116C73.6404 65.1649 74.3901 67.7029 74.772 70.2815L76.8257 82.5449Z" fill="white"/>
<path d="M65.7431 45.591C65.7431 49.1129 64.0304 52.2541 61.3542 54.3019C59.7539 55.5268 57.8087 56.3603 55.6785 56.6499C55.1309 56.7244 54.5712 56.7633 54.0017 56.7633C53.4323 56.7633 52.8723 56.7247 52.3249 56.6499C50.1947 56.3603 48.2493 55.5268 46.6493 54.3019C43.9731 52.2541 42.2603 49.1129 42.2603 45.591C42.2603 44.5261 42.4171 43.4955 42.7093 42.5201C44.1116 37.8428 48.6362 34.4185 54.0017 34.4185C59.367 34.4185 63.8916 37.8428 65.2939 42.5201C65.5866 43.4955 65.7431 44.5264 65.7431 45.591Z" fill="white"/>
</svg>
