<svg width="108" height="108" viewBox="0 0 108 108" fill="none" xmlns="http://www.w3.org/2000/svg">
<path d="M54 108C83.8234 108 108 83.8234 108 54C108 24.1766 83.8234 0 54 0C24.1766 0 0 24.1766 0 54C0 83.8234 24.1766 108 54 108Z" fill="#4A4A4A"/>
<path d="M87.0605 51.9769C87.0605 70.1931 72.2938 84.9604 54.075 84.9604C35.8616 84.9604 21.0933 70.1931 21.0933 51.9769C21.0933 33.7609 35.8616 18.9939 54.075 18.9939C72.2938 18.9939 87.0605 33.7609 87.0605 51.9769Z" fill="#1EC1CB"/>
<path d="M54.0754 18.994C72.2943 18.994 87.061 33.761 87.061 51.9769C87.061 70.1932 72.2943 84.9604 54.0754 84.9604C35.8621 84.9604 21.0937 70.1932 21.0937 51.9769C21.0937 33.761 35.8621 18.994 54.0754 18.994ZM54.0754 16.0948C51.6432 16.0948 49.2111 16.3403 46.8476 16.8237C44.5425 17.2953 42.2752 17.9993 40.1087 18.9158C37.9822 19.8155 35.9311 20.9286 34.0129 22.2247C32.1136 23.5081 30.3274 24.9814 28.7045 26.6045C27.0815 28.2276 25.6079 30.0136 24.3247 31.9128C23.029 33.8313 21.9153 35.8824 21.0159 38.0091C20.0994 40.176 19.3954 42.4435 18.9238 44.7486C18.4398 47.1124 18.1948 49.5444 18.1948 51.9769C18.1948 54.4095 18.4401 56.8415 18.9238 59.2056C19.3954 61.5109 20.0991 63.7782 21.0159 65.945C21.9158 68.0717 23.029 70.1229 24.3247 72.0413C25.6081 73.9406 27.0817 75.7266 28.7045 77.3496C30.3274 78.9727 32.1136 80.4463 34.0129 81.7295C35.9311 83.0255 37.9822 84.1389 40.1087 85.0383C42.2752 85.9548 44.5425 86.6585 46.8476 87.1304C49.2111 87.6141 51.6429 87.8593 54.0754 87.8593C56.5082 87.8593 58.9407 87.6141 61.3045 87.1304C63.6101 86.6588 65.8779 85.9551 68.0448 85.0383C70.1717 84.1387 72.2232 83.0255 74.1414 81.7295C76.0409 80.4463 77.8272 78.9727 79.45 77.3496C81.0731 75.7266 82.5469 73.9406 83.8301 72.041C85.1261 70.1229 86.2395 68.0714 87.1389 65.9447C88.0554 63.7779 88.7594 61.5106 89.231 59.2053C89.7149 56.8415 89.9599 54.4095 89.9599 51.9767C89.9599 49.5439 89.7146 47.1121 89.231 44.7483C88.7594 42.443 88.0557 40.1757 87.1389 38.0089C86.2393 35.8819 85.1261 33.831 83.8301 31.9126C82.5467 30.0133 81.0731 28.2273 79.45 26.6042C77.8269 24.9811 76.0409 23.5075 74.1414 22.2244C72.2229 20.9284 70.1715 19.8149 68.0448 18.9155C65.8777 17.9991 63.6101 17.2951 61.3045 16.8235C58.9407 16.34 56.5082 16.0948 54.0754 16.0948Z" fill="#116368"/>
<path d="M54.6421 52.4274L53.3633 53.1657L62.7425 69.4105L64.0213 68.6721L54.6421 52.4274Z" fill="#092035"/>
<path d="M54.1202 50.1125L54.1176 50.1096C54.1163 50.107 54.1136 50.1046 54.11 50.1012L43.1518 38.754C42.8473 38.38 42.3811 38.1403 41.8615 38.1403C40.9408 38.1403 40.1938 38.886 40.1938 39.8058C40.1938 40.29 40.4021 40.7262 40.7316 41.0308L51.7317 52.4194C51.7577 52.4462 51.7876 52.4677 51.8188 52.4858C52.1158 52.7583 52.5076 52.9267 52.9422 52.9267C53.8561 52.9267 54.596 52.1849 54.596 51.2708C54.5955 50.8207 54.4145 50.4113 54.1202 50.1125Z" fill="#092035"/>
<path d="M70.5155 48.598L70.5118 48.5983C70.5081 48.5988 70.5037 48.5993 70.5 48.5998L56.2563 50.3769C55.8175 50.3937 55.3889 50.6012 55.1064 50.9804C54.6064 51.6498 54.745 52.5991 55.417 53.1011C55.7708 53.3652 56.2009 53.4531 56.6036 53.3799L70.8992 51.5963C70.9336 51.5921 70.9656 51.5821 70.996 51.569C71.358 51.5037 71.6924 51.3081 71.9285 50.9933C72.4256 50.3279 72.2876 49.3852 71.6198 48.8868C71.2898 48.6408 70.8924 48.549 70.5155 48.598Z" fill="#092035"/>
<path d="M54.5958 54.336C55.6506 54.336 56.5056 53.4809 56.5056 52.4262C56.5056 51.3715 55.6506 50.5164 54.5958 50.5164C53.5411 50.5164 52.686 51.3715 52.686 52.4262C52.686 53.4809 53.5411 54.336 54.5958 54.336Z" fill="#FDFEFE"/>
<path d="M54.6211 28.5921C54.1568 28.5921 53.7773 28.2123 53.7773 27.7483V22.7555C53.7773 22.2912 54.1568 21.9117 54.6211 21.9117C55.0854 21.9117 55.4652 22.2912 55.4652 22.7555V27.7483C55.4652 28.2126 55.0854 28.5921 54.6211 28.5921Z" fill="#092035"/>
<path d="M71.1299 35.8494C70.8015 35.5215 70.8009 34.9843 71.1291 34.6559L74.6575 31.1236C74.9857 30.7954 75.5229 30.7949 75.8512 31.123C76.1794 31.4509 76.1796 31.9881 75.8518 32.3165L72.3231 35.8488C71.9949 36.177 71.458 36.1775 71.1299 35.8494Z" fill="#092035"/>
<path d="M77.5996 52.4299C77.5991 51.9657 77.9784 51.5856 78.4427 51.5853L83.4354 51.5801C83.8997 51.5796 84.2798 51.9588 84.2804 52.4231C84.2806 52.8874 83.9016 53.2672 83.4373 53.2677L78.4445 53.2729C77.9803 53.2735 77.6001 52.8942 77.5996 52.4299Z" fill="#092035"/>
<path d="M70.7349 68.4177C71.0625 68.089 71.5995 68.0882 71.9284 68.4158L75.4641 71.9408C75.7928 72.2684 75.7936 72.8054 75.466 73.1343C75.1384 73.4629 74.6014 73.4637 74.2725 73.1361L70.7368 69.6114C70.4081 69.2832 70.4073 68.7463 70.7349 68.4177Z" fill="#092035"/>
<path d="M54.6711 75.433C55.1354 75.4319 55.5157 75.811 55.5167 76.275L55.5272 81.2678C55.5283 81.732 55.1493 82.1124 54.6853 82.1134C54.221 82.1142 53.8404 81.7355 53.8393 81.2714L53.8291 76.2786C53.8281 75.8146 54.2069 75.434 54.6711 75.433Z" fill="#092035"/>
<path d="M38.0867 69.0773C38.4156 69.4046 38.4172 69.9416 38.0898 70.2708L34.5685 73.8104C34.2414 74.1394 33.7042 74.1409 33.375 73.8136C33.0461 73.4862 33.0448 72.9493 33.3719 72.6204L36.8932 69.0807C37.2206 68.7513 37.7578 68.75 38.0867 69.0773Z" fill="#092035"/>
<path d="M30.8572 52.5293C30.8588 52.9936 30.48 53.3744 30.016 53.3757L25.0232 53.3915C24.5592 53.3928 24.1783 53.0143 24.1768 52.5503C24.1752 52.086 24.554 51.7052 25.018 51.7039L30.0107 51.6881C30.475 51.6868 30.8556 52.0653 30.8572 52.5293Z" fill="#092035"/>
<path d="M37.6862 35.6432C37.3593 35.9724 36.8222 35.9745 36.493 35.6477L32.9494 32.13C32.6202 31.8029 32.6181 31.266 32.9452 30.9366C33.272 30.6071 33.8089 30.6053 34.1384 30.9321L37.6817 34.4498C38.0112 34.7766 38.013 35.3138 37.6862 35.6432Z" fill="#092035"/>
</svg>
