<svg width="111" height="111" viewBox="0 0 111 111" fill="none" xmlns="http://www.w3.org/2000/svg">
<path d="M55.5 111C86.1518 111 111 86.1518 111 55.5C111 24.8482 86.1518 0 55.5 0C24.8482 0 0 24.8482 0 55.5C0 86.1518 24.8482 111 55.5 111Z" fill="#4A4A4A"/>
<path d="M69.9513 74.1705C70.0521 72.5923 70.154 71.104 70.2408 69.6151C70.5975 63.4826 70.9498 57.3499 71.3016 51.2171C71.3234 50.8381 71.3477 50.4575 71.3356 50.0787C71.3121 49.346 70.8913 48.8766 70.1764 48.747C69.3126 48.5901 68.8694 48.1337 68.9271 47.4597C68.9829 46.8068 69.528 46.3701 70.3745 46.3671C73.458 46.3569 76.5418 46.3571 79.6255 46.3684C80.4326 46.3714 80.954 46.8027 81.0109 47.4433C81.0729 48.1428 80.6537 48.5893 79.7881 48.7456C79.01 48.8861 78.5585 49.4366 78.6054 50.2679C78.8267 54.1933 79.0648 58.1176 79.2926 62.0428C79.4948 65.5215 79.691 69.0004 79.891 72.4794C79.9218 73.0129 79.9576 73.5459 79.9967 74.1707C80.4981 74.1707 80.9589 74.1686 81.4198 74.1713C82.8799 74.1796 83.8517 75.0199 83.8517 76.2719C83.8517 77.5268 82.8748 78.3827 81.426 78.3835C75.2364 78.3859 69.0466 78.3857 62.8569 78.3851C51.7736 78.3843 40.6903 78.3835 29.6069 78.3805C28.3558 78.3803 27.5336 77.8632 27.2359 76.9097C26.8138 75.5572 27.7781 74.2449 29.261 74.1761C29.8148 74.1505 30.3706 74.1718 30.9877 74.1718C31.0602 73.0913 31.1365 72.0726 31.1956 71.0527C31.4366 66.8823 31.6695 62.7116 31.911 58.5415C32.0661 55.8653 32.2256 53.1897 32.3939 50.5146C32.4615 49.4344 32.1008 48.9338 31.0629 48.73C30.3547 48.5906 29.9684 48.1418 29.9965 47.4899C30.0226 46.879 30.4974 46.414 31.1993 46.38C31.9129 46.3455 32.6289 46.3593 33.3439 46.3593C35.6456 46.3587 37.947 46.3609 40.2487 46.3636C40.4722 46.3636 40.6967 46.3579 40.9183 46.3795C41.5675 46.4429 42.0417 46.8941 42.0805 47.4697C42.1242 48.1143 41.7376 48.5755 41.0318 48.7214C39.9783 48.9392 39.6179 49.3643 39.6785 50.4219C39.9662 55.4396 40.2697 60.4565 40.5619 65.474C40.7178 68.1499 40.8763 70.826 40.9989 73.5035C41.0224 74.0174 41.1583 74.1883 41.692 74.1832C44.4178 74.157 47.1443 74.1551 49.8701 74.1842C50.4219 74.1902 50.5257 73.9885 50.5535 73.493C50.9298 66.7575 51.3274 60.0233 51.7186 53.2886C51.7758 52.3073 51.8437 51.3266 51.8785 50.3445C51.9127 49.3694 51.5299 48.9163 50.5745 48.7313C49.8245 48.5863 49.4201 48.1188 49.4722 47.4568C49.5188 46.8637 50.0178 46.3833 50.7144 46.3789C53.9095 46.3601 57.1051 46.3579 60.3002 46.3746C60.999 46.3784 61.4991 46.8607 61.5449 47.4508C61.5966 48.1164 61.1931 48.589 60.449 48.7346C59.4726 48.9257 59.0793 49.4096 59.1378 50.409C59.4702 56.0953 59.8134 61.7813 60.146 67.4676C60.2622 69.452 60.3754 71.4372 60.455 73.4235C60.4771 73.9694 60.6035 74.1953 61.2187 74.1866C63.8773 74.1494 66.5367 74.1707 69.1959 74.1707C69.4172 74.1705 69.6394 74.1705 69.9513 74.1705Z" fill="white"/>
<path d="M55.5076 43.5379C45.5414 43.5379 35.5752 43.5352 25.609 43.5416C24.3633 43.5424 23.4737 43.0289 22.9445 41.888C22.6536 41.2607 22.3261 40.6506 22.0201 40.0303C21.4726 38.9196 21.6863 38.2408 22.79 37.6672C28.0374 34.9395 33.2875 32.217 38.5377 29.4942C43.6293 26.8537 48.7268 24.2241 53.81 21.5677C54.9587 20.9673 56.0338 20.9706 57.1852 21.5693C67.4207 26.8944 77.6662 32.2008 87.9084 37.5127C88.0076 37.5639 88.1066 37.6151 88.205 37.6677C89.3132 38.2592 89.5337 38.953 88.97 40.0931C88.6735 40.6932 88.3554 41.2836 88.0729 41.8901C87.5423 43.0297 86.6519 43.5424 85.4059 43.5413C77.7414 43.5338 70.0769 43.5378 62.4121 43.5381C60.1107 43.5378 57.8093 43.5379 55.5076 43.5379ZM58.4816 31.4161C58.6868 31.4161 58.7987 31.4182 58.9103 31.4158C59.87 31.3937 60.149 30.9721 59.7834 30.0781C59.3944 29.1265 58.6304 28.6359 57.6721 28.3951C57.2073 28.2781 56.8008 28.1517 56.6544 27.5742C56.5905 27.3219 56.2101 26.961 56.005 26.9806C55.7381 27.006 55.3674 27.3179 55.283 27.5834C55.131 28.0617 54.846 28.2738 54.415 28.4038C54.0955 28.5 53.772 28.5973 53.4714 28.7391C52.3012 29.2915 51.7307 30.2431 51.7413 31.5215C51.7515 32.7392 52.4271 33.511 53.5165 33.9507C54.0117 34.1505 54.5207 34.3179 55.0275 34.4872C55.5769 34.6705 56.1495 34.7961 56.6787 35.0239C57.3912 35.3309 57.5597 36.0351 57.1194 36.6228C56.5541 37.3771 54.98 37.3485 54.5794 36.5009C54.0664 35.4167 53.5461 35.473 52.3427 35.5612C51.7849 35.6019 51.5585 36.0125 51.6852 36.5719C51.9995 37.9602 52.9959 38.5767 54.288 38.8374C54.7754 38.9355 55.1526 39.0808 55.296 39.6526C55.3529 39.8804 55.7287 40.192 55.937 40.1759C56.1921 40.1565 56.5727 39.8721 56.6353 39.633C56.7714 39.1116 57.1049 38.9326 57.54 38.7606C58.0738 38.5495 58.6474 38.3592 59.0914 38.0149C60.8809 36.6274 60.5302 33.8795 58.4636 32.9929C57.7901 32.7042 57.0674 32.5327 56.3757 32.2844C55.9166 32.1194 55.4421 31.9631 55.0291 31.7126C54.47 31.3732 54.4449 30.8098 54.8989 30.3598C55.4717 29.7924 56.5978 29.883 56.9884 30.5836C57.3523 31.2357 57.8365 31.5374 58.4816 31.4161Z" fill="white"/>
<path d="M55.4965 79.8023C65.487 79.8026 75.4772 79.802 85.4673 79.8034C87.1183 79.8037 88.1597 81.0052 87.7906 82.4739C87.5491 83.4341 86.6921 84.014 85.4779 84.0153C81.4325 84.0204 77.3872 84.0205 73.3418 84.0205C57.4289 84.0199 41.5157 84.0188 25.6028 84.0175C24.1427 84.0175 23.2049 83.2495 23.1563 82.0175C23.1049 80.7138 24.0303 79.8123 25.4588 79.808C28.5876 79.7988 31.7167 79.8026 34.8457 79.8023C41.7292 79.8018 48.613 79.802 55.4965 79.8023Z" fill="white"/>
</svg>
