<svg width="106" height="108" viewBox="0 0 106 108" fill="none" xmlns="http://www.w3.org/2000/svg">
<path d="M53 108C82.2711 108 106 83.8234 106 54C106 24.1766 82.2711 0 53 0C23.7289 0 0 24.1766 0 54C0 83.8234 23.7289 108 53 108Z" fill="#4A4A4A"/>
<path d="M50.6722 51.6264L47.8638 51.6246L47.1337 51.6243L31.8601 51.6139C31.6124 51.6139 31.366 51.6007 31.1251 51.5737C30.8774 51.5485 30.6352 51.5097 30.3973 51.4562C27.2277 50.7687 24.85 47.8987 24.8521 44.4634L24.8541 42.802C24.8559 39.385 27.2128 36.5302 30.3579 35.8259C30.5958 35.774 30.8378 35.7321 31.0844 35.7056C31.3421 35.6754 31.6055 35.6602 31.8711 35.6612L47.0966 35.6717L47.8264 35.672L50.6807 35.6741C54.5546 35.677 57.693 38.8783 57.6894 42.8232L57.6887 44.4854C57.6866 48.4314 54.5448 51.6285 50.6722 51.6264Z" fill="#116368"/>
<path d="M80.4208 22.7393C68.2532 31.8903 38.9026 35.6424 38.9026 35.6424L38.8974 43.409L38.8745 51.1659C38.8745 51.1659 68.2112 55.0276 80.3459 64.2245L80.4079 43.4819H80.3811H80.4079L80.4208 22.7393Z" fill="#116368"/>
<path d="M38.6308 43.2624V43.3091L38.6079 51.066C38.6079 51.066 67.9446 54.9278 80.0793 64.1249L80.1408 43.4696L38.6308 43.2624Z" fill="#22CED9"/>
<path d="M80.4073 43.4819L80.4204 22.7393C78.1387 24.4552 75.2526 25.9817 72.0693 27.3286C77.1417 35.6772 77.9044 47.5525 73.1642 58.6883C72.9933 59.0891 72.8159 59.4838 72.6339 59.8751C75.5651 61.1667 78.2193 62.6138 80.3452 64.2245L80.4073 43.4819Z" fill="white"/>
<path d="M41.9328 44.6095L40.8869 64.0588L40.8861 64.0771L40.363 73.8081L40.3625 73.8168L39.9843 80.8534C39.8391 83.8645 38.5308 84.4709 37.8867 84.4715L33.7609 84.6561C32.4753 84.6572 30.5803 84.584 30.9376 80.2658L31.495 73.8235L31.4957 73.8149L31.7676 70.676L32.3381 64.084L32.3394 64.0654L33.8655 46.4343C33.787 45.671 34.3356 44.9159 35.0901 44.7449L40.4242 43.5381C41.1791 43.3673 41.8546 43.8468 41.9328 44.6095Z" fill="#116368"/>
<path d="M82.1485 49.8155L86.7149 49.8121C86.9101 49.8121 87.0694 49.6493 87.0691 49.4507L85.681 43.1957L87.0596 36.9386C87.0596 36.7398 86.8998 36.5774 86.7049 36.5777L82.1384 36.5814C81.9435 36.5814 81.7842 36.7443 81.7842 36.9428L81.7937 49.4549C81.7937 49.6534 81.9533 49.8158 82.1485 49.8155Z" fill="white"/>
<path d="M47.8231 53.8602C47.6156 53.8004 47.3726 53.7424 47.0958 53.6884C43.2675 52.9248 33.2652 52.6203 31.408 52.5705C31.3169 52.5681 31.2461 52.5655 31.1949 52.5645C31.1861 52.5637 31.1776 52.562 31.1694 52.5636C31.13 52.5613 31.1096 52.5613 31.1096 52.5613L31.1259 51.5742L31.2602 43.5364L31.0849 35.7058L31.0571 34.4594C31.0571 34.4594 42.8177 34.1048 47.0387 33.2376C47.3147 33.1799 47.5577 33.1214 47.7629 33.0611L47.8272 35.6723L48.0123 43.2744L48.0211 43.2755L48.018 43.49L48.0221 43.645H48.0146L47.8643 51.6249L47.8231 53.8602Z" fill="white"/>
<path d="M83.3417 63.8957C83.3414 64.7767 82.6394 65.4902 81.7746 65.4896C80.9104 65.4894 80.2099 64.7746 80.2104 63.8938L80.2364 22.99C80.237 22.109 80.9387 21.3953 81.8035 21.3961C82.6677 21.3966 83.3685 22.1113 83.3682 22.9921L83.3417 63.8957Z" fill="white"/>
<path d="M45.9684 38.3829L33.4095 38.3929C33.2197 38.3929 33.0645 38.2349 33.0642 38.0416L33.0635 36.9085C33.0632 36.7152 33.2185 36.5571 33.4079 36.5568L45.9668 36.5471C46.1566 36.5468 46.3118 36.705 46.3121 36.898L46.3128 38.0314C46.3131 38.2244 46.1581 38.3826 45.9684 38.3829Z" fill="#116368"/>
<path d="M45.9711 41.3324L33.4121 41.3421C33.2224 41.3423 33.0672 41.1842 33.0672 40.9912L33.0664 39.8578C33.0664 39.6647 33.2214 39.5063 33.4109 39.5063L45.9698 39.4963C46.1595 39.4963 46.3147 39.6542 46.3147 39.8475L46.3155 40.9807C46.3158 41.1742 46.1608 41.3324 45.9711 41.3324Z" fill="#116368"/>
<path d="M45.973 44.2819L33.4141 44.2919C33.2244 44.2919 33.0691 44.134 33.0691 43.9407L33.0684 42.8075C33.0684 42.6142 33.2233 42.4561 33.4128 42.4558L45.9717 42.4461C46.1612 42.4458 46.3167 42.604 46.3167 42.7971L46.3175 43.9304C46.3175 44.1237 46.1625 44.2819 45.973 44.2819Z" fill="#116368"/>
<path d="M45.9752 47.2319L33.4163 47.2416C33.2266 47.2419 33.0713 47.0837 33.0711 46.8907L33.0703 45.7573C33.0703 45.5642 33.2253 45.4058 33.415 45.4058L45.9739 45.3959C46.1637 45.3959 46.3189 45.5537 46.3192 45.7471L46.3199 46.8804C46.3199 47.0735 46.1649 47.2317 45.9752 47.2319Z" fill="#116368"/>
<path d="M45.9774 50.1815L33.4185 50.1915C33.2288 50.1915 33.0735 50.0335 33.0735 49.8402L33.0728 48.7069C33.0728 48.5136 33.2277 48.3554 33.4172 48.3554L45.9761 48.3454C46.1658 48.3454 46.3211 48.5033 46.3211 48.6964L46.3218 49.8298C46.3221 50.0231 46.1669 50.1815 45.9774 50.1815Z" fill="#116368"/>
<path d="M41.1746 58.7051L40.8173 65.3572L32.2271 65.3627L32.8024 58.7119L41.1746 58.7051Z" fill="white"/>
</svg>
